<svg width="17" height="12" viewBox="0 0 17 12" fill="none" xmlns="http://www.w3.org/2000/svg">
<path d="M6.05002 9.13291L14.525 0.65791C14.725 0.45791 14.9625 0.35791 15.2375 0.35791C15.5125 0.35791 15.75 0.45791 15.95 0.65791C16.15 0.85791 16.25 1.09541 16.25 1.37041C16.25 1.64541 16.15 1.88291 15.95 2.08291L6.75002 11.2829C6.55002 11.4829 6.31669 11.5829 6.05002 11.5829C5.78336 11.5829 5.55002 11.4829 5.35002 11.2829L1.05002 6.98291C0.850024 6.78291 0.754191 6.54541 0.762524 6.27041C0.770857 5.99541 0.875024 5.75791 1.07502 5.55791C1.27502 5.35791 1.51252 5.25791 1.78752 5.25791C2.06252 5.25791 2.30002 5.35791 2.50002 5.55791L6.05002 9.13291Z" fill="white"/>
</svg>
